<?xml version="1.0" standalone="no"?>
<!DOCTYPE svg PUBLIC "-//W3C//DTD SVG 20010904//EN"
 "http://www.w3.org/TR/2001/REC-SVG-20010904/DTD/svg10.dtd">
<svg version="1.0" xmlns="http://www.w3.org/2000/svg"
 width="700.000000pt" height="700.000000pt" viewBox="0 0 700.000000 700.000000"
 preserveAspectRatio="xMidYMid meet">
<metadata>
Created by potrace 1.11, written by Peter Selinger 2001-2013
</metadata>
<g transform="translate(0.000000,700.000000) scale(0.100000,-0.100000)"
fill="#000000" stroke="none">
<path d="M5587 5584 c-1 -1 -51 -5 -112 -8 -150 -10 -212 -19 -424 -61 -112
-22 -331 -100 -456 -162 -323 -163 -618 -442 -780 -740 l-28 -52 -36 59 c-20
33 -56 88 -81 122 -68 95 -283 304 -390 380 -167 119 -444 242 -646 289 -178
40 -399 69 -644 84 -41 2 -120 7 -174 10 -78 5 -1343 10 -1458 6 l-27 -1 0
-1960 c0 -1502 3 -1960 12 -1961 7 0 307 -1 667 0 604 0 847 4 990 16 30 2 87
7 125 10 39 3 86 8 105 10 19 3 73 9 120 15 80 9 98 12 160 25 14 2 39 7 55
10 192 31 506 160 675 276 205 141 399 342 512 530 l34 57 24 -47 c21 -40 136
-218 150 -231 3 -3 21 -25 41 -50 103 -128 289 -289 441 -384 197 -121 491
-231 723 -270 185 -32 304 -41 530 -40 336 0 552 34 852 133 91 30 130 47 286
118 l77 36 0 404 c0 221 -2 403 -4 403 -2 0 -44 -25 -92 -56 -324 -203 -674
-308 -1034 -308 -457 0 -804 193 -999 554 -62 116 -119 281 -135 395 -4 23 -8
52 -11 65 -18 92 -24 340 -11 481 54 609 405 1015 946 1095 107 16 447 9 520
-11 8 -2 31 -6 50 -9 195 -30 477 -149 713 -300 l57 -37 0 404 c0 312 -3 407
-12 414 -30 23 -340 151 -408 169 -8 2 -64 17 -125 33 -207 55 -396 79 -663
85 -62 1 -114 1 -115 0z m-3637 -847 c8 -3 35 -8 60 -11 177 -20 378 -91 520
-185 296 -194 453 -534 451 -977 0 -186 -18 -325 -58 -455 -9 -30 -18 -60 -19
-66 -7 -38 -91 -191 -142 -259 -94 -127 -205 -218 -361 -295 -71 -34 -216 -84
-279 -95 -15 -3 -34 -7 -42 -9 -8 -2 -35 -7 -60 -10 -25 -3 -61 -8 -80 -11
-19 -3 -159 -7 -311 -10 -216 -3 -278 -1 -281 8 -3 11 -3 2357 1 2381 1 9 576
3 601 -6z"/>
</g>
</svg>
